<svg xmlns="http://www.w3.org/2000/svg" version="1.1" xmlns:xlink="http://www.w3.org/1999/xlink" xmlns:svgjs="http://svgjs.dev/svgjs" width="128" height="128" viewBox="0 0 128 128"><g transform="matrix(0.8046875,0,0,0.8046875,12.221578124999994,48.327807058240836)"><svg viewBox="0 0 96 29" data-background-color="#f5f5f7" preserveAspectRatio="xMidYMid meet" height="38" width="128" xmlns="http://www.w3.org/2000/svg" xmlns:xlink="http://www.w3.org/1999/xlink"><g id="tight-bounds" transform="matrix(1,0,0,1,0.25950000000000273,0.3633572304062369)"><svg viewBox="0 0 95.481 28.273285539187537" height="28.273285539187537" width="95.481"><g><svg viewBox="0 0 95.481 28.273285539187537" height="28.273285539187537" width="95.481"><g><svg viewBox="0 0 95.481 28.273285539187537" height="28.273285539187537" width="95.481"><g id="textblocktransform"><svg viewBox="0 0 95.481 28.273285539187537" height="28.273285539187537" width="95.481" id="textblock"><g><svg viewBox="0 0 95.481 28.273285539187537" height="28.273285539187537" width="95.481"><g><svg viewBox="0 0 95.481 28.273285539187537" height="28.273285539187537" width="95.481"><g><svg xmlns="http://www.w3.org/2000/svg" xmlns:xlink="http://www.w3.org/1999/xlink" version="1.1" x="0" y="0" viewBox="0.0005077176250459642 40.99974999285867 100.00139598493814 29.611839245499297" enable-background="new 0 0 100 100" xml:space="preserve" id="icon-0" width="95.481" height="28.273285539187537" class="icon-icon-0" data-fill-palette-color="accent"><path fill="#b0bec5" d="M20.784 47.299C28.879 43.941 37.427 41.34 46.239 41.011 48.449 40.958 50.694 41.077 52.826 41.698 57.701 44.077 62.767 46.06 67.759 48.187 71.371 49.382 75.221 48.95 78.957 49.169 81.234 49.274 83.514 49.452 85.766 49.834 87.53 50.143 89.18 50.906 90.69 51.85 93.651 52.719 96.455 54.086 99.024 55.793 99.455 56.08 99.916 56.445 99.999 56.99 100.067 57.945 98.92 58.316 98.726 59.174 98.547 59.69 99.392 59.779 99.277 60.279 99.124 60.961 98.351 61.213 97.781 61.461 94.121 62.703 90.216 62.887 86.392 63.19 86.41 60.991 86.117 58.727 85.144 56.731 83.956 54.739 81.922 53.176 79.591 52.836 76.59 52.365 73.157 53.049 71.128 55.465 69.081 57.836 68.801 61.153 68.983 64.147 56.918 64.651 44.845 65.432 32.778 65.94 32.818 64.494 32.918 63.006 32.51 61.598 31.977 59.623 30.76 57.778 28.966 56.744 26.795 55.444 24.073 55.375 21.694 56.084 19.854 56.644 18.24 57.929 17.352 59.644 16.133 61.82 16.227 64.392 16.137 66.804 12.694 66.84 9.26 66.603 5.834 66.293 4.279 65.67 2.755 64.918 1.38 63.959 0.788 63.336 0.704 62.397 0.413 61.614 0.196 60.635-0.313 59.543 0.273 58.594 1.747 55.916 4.507 54.354 6.964 52.703 6.367 52.646 5.628 52.56 5.166 52.183L5.197 51.947C5.912 51.838 6.657 52.064 7.355 51.853 6.815 50.869 5.956 50.013 5.188 49.172 4.644 48.968 4.01 48.992 3.519 48.634 3.53 48.555 3.554 48.395 3.567 48.316 5.056 47.996 6.591 47.967 8.107 47.86 9.127 47.801 10.203 47.687 11.184 48.04 11.261 48.678 10.327 48.544 10.296 49.06 10.739 49.615 11.25 50.128 11.842 50.524 12.607 50.325 13.335 49.981 14.12 49.837 16.407 49.178 18.573 48.174 20.784 47.299M42.212 42.482C40.168 42.741 38.104 43.028 36.115 43.561A155 155 0 0 0 38.733 50.25C46.433 50.099 54.141 49.761 61.833 49.353L61.779 49.16C58.974 47.513 56.256 45.71 53.378 44.19 51.753 43.383 50.093 42.512 48.257 42.343 46.245 42.134 44.223 42.377 42.212 42.482M25.203 47.114C23.668 47.807 22.018 48.368 20.716 49.467 20.379 49.983 21.109 50.18 21.466 50.259 23.789 50.665 26.159 50.553 28.506 50.581 31.151 50.548 33.798 50.523 36.443 50.434 35.673 48.303 34.774 46.212 33.952 44.099 30.958 44.854 28.056 45.945 25.203 47.114" data-fill-palette-color="accent"></path><path fill="#b0bec5" d="M76.077 53.523C77.937 53.115 79.968 53.457 81.566 54.498 83.441 55.637 84.705 57.701 84.913 59.881A7.23 7.23 0 0 1 83.253 65.256C81.6 67.256 78.83 68.225 76.286 67.738 73.113 67.22 70.505 64.388 70.31 61.17 69.952 57.641 72.602 54.166 76.077 53.523" data-fill-palette-color="accent"></path><path fill="#b0bec5" d="M22.917 56.285C24.63 55.904 26.483 56.115 28.036 56.951 29.911 57.92 31.326 59.744 31.758 61.814 32.166 63.693 31.804 65.73 30.73 67.33 29.528 69.185 27.432 70.402 25.234 70.58 23.015 70.793 20.725 69.918 19.208 68.283 17.541 66.539 16.886 63.926 17.478 61.592 18.108 58.979 20.31 56.883 22.917 56.285" data-fill-palette-color="accent"></path></svg></g></svg></g></svg></g></svg></g></svg></g></svg></g><defs></defs></svg><rect width="95.481" height="28.273285539187537" fill="none" stroke="none" visibility="hidden"></rect></g></svg></g></svg>