<svg xmlns="http://www.w3.org/2000/svg" version="1.1" xmlns:xlink="http://www.w3.org/1999/xlink" xmlns:svgjs="http://svgjs.dev/svgjs" width="1500" height="1518" viewBox="0 0 1500 1518"><g transform="matrix(1,0,0,1,-1.7407346938775845,-2.4483870967742405)"><svg viewBox="0 0 245 248" data-background-color="#ffffff" preserveAspectRatio="xMidYMid meet" height="1518" width="1500" xmlns="http://www.w3.org/2000/svg" xmlns:xlink="http://www.w3.org/1999/xlink"><g id="tight-bounds" transform="matrix(1,0,0,1,0.2843200000000081,0.4000000000000057)"><svg viewBox="0 0 244.43135999999998 247.2" height="247.2" width="244.43135999999998"><g><svg></svg></g><g><svg viewBox="0 0 244.43135999999998 247.2" height="247.2" width="244.43135999999998"><g transform="matrix(1,0,0,1,0,106.30763682313682)"><svg viewBox="0 0 244.43135999999998 34.58472635372635" height="34.58472635372635" width="244.43135999999998"><g><svg viewBox="0 0 244.43135999999998 34.58472635372635" height="34.58472635372635" width="244.43135999999998"><g><svg viewBox="0 0 244.43135999999998 34.58472635372635" height="34.58472635372635" width="244.43135999999998"><g><svg viewBox="0 0 244.43135999999998 34.58472635372635" height="34.58472635372635" width="244.43135999999998"><g id="textblocktransform"><svg viewBox="0 0 244.43135999999998 34.58472635372635" height="34.58472635372635" width="244.43135999999998" id="textblock"><g><svg viewBox="0 0 244.43135999999998 34.58472635372635" height="34.58472635372635" width="244.43135999999998"><g transform="matrix(1,0,0,1,0,0)"><svg width="244.43135999999998" viewBox="-0.15 -31.1 224.74 31.8" height="34.58472635372635" data-palette-color="#556970"><path d="M27.5-4.2Q28.85-1.1 30.95-1L30.95-1 30.95 0Q28.95-0.15 25.6-0.15L25.6-0.15Q21.3-0.15 19.2 0L19.2 0 19.2-1Q21.05-1.1 21.93-1.5 22.8-1.9 22.8-2.85L22.8-2.85Q22.8-3.65 22.1-5.2L22.1-5.2 19.55-10.9 7.4-10.9 5.7-7.15Q4.85-5.2 4.85-3.95L4.85-3.95Q4.85-2.65 5.78-1.93 6.7-1.2 8.75-1L8.75-1 8.75 0Q7.25-0.15 4.2-0.15L4.2-0.15Q1.15-0.15-0.15 0L-0.15 0-0.15-1Q1.2-1.35 2.15-2.53 3.1-3.7 3.95-5.65L3.95-5.65 15-30.65 15.8-30.65 27.5-4.2ZM7.8-11.9L19.15-11.9 13.5-24.6 7.8-11.9ZM61.05-30.4L61.05-29.4Q59.3-29.3 58.45-28.88 57.6-28.45 57.3-27.48 57-26.5 57-24.6L57-24.6 57-13.55Q57-10.1 56.52-7.68 56.05-5.25 54.95-3.45L54.95-3.45Q53.75-1.55 51.47-0.43 49.2 0.7 46.3 0.7L46.3 0.7Q41.15 0.7 38.4-1.5L38.4-1.5Q36.2-3.45 35.45-5.95 34.7-8.45 34.7-13.4L34.7-13.4 34.7-25.1Q34.7-27 34.4-27.85 34.1-28.7 33.27-29 32.45-29.3 30.65-29.4L30.65-29.4 30.65-30.4Q32.75-30.25 37.05-30.25L37.05-30.25Q41.05-30.25 43.4-30.4L43.4-30.4 43.4-29.4Q41.6-29.3 40.77-29 39.95-28.7 39.65-27.85 39.35-27 39.35-25.1L39.35-25.1 39.35-12.55Q39.35-8.85 39.85-6.43 40.35-4 41.97-2.53 43.6-1.05 46.75-1.05L46.75-1.05Q51.75-1.05 53.8-4.2 55.85-7.35 55.85-13L55.85-13 55.85-24.6Q55.85-27.3 54.87-28.3 53.9-29.3 51.3-29.4L51.3-29.4 51.3-30.4Q53.1-30.25 56.4-30.25L56.4-30.25Q59.4-30.25 61.05-30.4L61.05-30.4ZM92.15-30.4Q91.8-27.1 91.8-24.5L91.8-24.5Q91.8-21.9 91.95-20.4L91.95-20.4 90.8-20.4Q90.5-23.9 89.84-25.75 89.2-27.6 87.75-28.43 86.3-29.25 83.59-29.25L83.59-29.25 80.4-29.25 80.4-5.8Q80.4-3.7 80.8-2.75 81.2-1.8 82.2-1.45 83.2-1.1 85.45-1L85.45-1 85.45 0Q82.84-0.15 78.09-0.15L78.09-0.15Q73.09-0.15 70.7 0L70.7 0 70.7-1Q72.95-1.1 73.95-1.45 74.95-1.8 75.34-2.75 75.75-3.7 75.75-5.8L75.75-5.8 75.75-29.25 72.55-29.25Q69.84-29.25 68.39-28.43 66.95-27.6 66.3-25.75 65.64-23.9 65.34-20.4L65.34-20.4 64.2-20.4Q64.34-22 64.34-24.5L64.34-24.5Q64.34-27.1 64-30.4L64-30.4Q68.14-30.25 78.09-30.25L78.09-30.25Q88-30.25 92.15-30.4L92.15-30.4ZM111.89-31.1Q116.49-31.1 119.97-29.28 123.44-27.45 125.34-23.93 127.24-20.4 127.24-15.5L127.24-15.5Q127.24-10.7 125.27-7.03 123.29-3.35 119.79-1.33 116.29 0.7 111.84 0.7L111.84 0.7Q107.24 0.7 103.77-1.13 100.29-2.95 98.39-6.48 96.49-10 96.49-14.9L96.49-14.9Q96.49-19.7 98.47-23.38 100.44-27.05 103.94-29.08 107.44-31.1 111.89-31.1L111.89-31.1ZM111.69-30.2Q108.64-30.2 106.32-28.28 103.99-26.35 102.74-22.93 101.49-19.5 101.49-15.1L101.49-15.1Q101.49-10.65 102.89-7.25 104.29-3.85 106.69-2.02 109.09-0.2 112.04-0.2L112.04-0.2Q115.09-0.2 117.42-2.13 119.74-4.05 120.99-7.48 122.24-10.9 122.24-15.3L122.24-15.3Q122.24-19.75 120.84-23.15 119.44-26.55 117.04-28.38 114.64-30.2 111.69-30.2L111.69-30.2ZM144.29-30.4L144.29-29.4Q142.49-29.3 141.67-29 140.84-28.7 140.54-27.85 140.24-27 140.24-25.1L140.24-25.1 140.24-5.3Q140.24-3.4 140.54-2.55 140.84-1.7 141.67-1.43 142.49-1.15 144.29-1.15L144.29-1.15 147.44-1.15Q150.89-1.15 152.82-3.2 154.74-5.25 155.14-10L155.14-10 156.29-10Q156.14-8.45 156.14-5.9L156.14-5.9Q156.14-3.3 156.49 0L156.49 0Q153.24-0.15 145.54-0.15L145.54-0.15Q136.29-0.15 131.54 0L131.54 0 131.54-1Q133.34-1.1 134.17-1.4 134.99-1.7 135.29-2.55 135.59-3.4 135.59-5.3L135.59-5.3 135.59-25.1Q135.59-27 135.29-27.85 134.99-28.7 134.17-29 133.34-29.3 131.54-29.4L131.54-29.4 131.54-30.4Q133.64-30.25 137.94-30.25L137.94-30.25Q141.94-30.25 144.29-30.4L144.29-30.4ZM175.14-31.1Q179.74-31.1 183.21-29.28 186.69-27.45 188.59-23.93 190.49-20.4 190.49-15.5L190.49-15.5Q190.49-10.7 188.51-7.03 186.54-3.35 183.04-1.33 179.54 0.7 175.09 0.7L175.09 0.7Q170.49 0.7 167.01-1.13 163.54-2.95 161.64-6.48 159.74-10 159.74-14.9L159.74-14.9Q159.74-19.7 161.71-23.38 163.69-27.05 167.19-29.08 170.69-31.1 175.14-31.1L175.14-31.1ZM174.94-30.2Q171.89-30.2 169.56-28.28 167.24-26.35 165.99-22.93 164.74-19.5 164.74-15.1L164.74-15.1Q164.74-10.65 166.14-7.25 167.54-3.85 169.94-2.02 172.34-0.2 175.29-0.2L175.29-0.2Q178.34-0.2 180.66-2.13 182.99-4.05 184.24-7.48 185.49-10.9 185.49-15.3L185.49-15.3Q185.49-19.75 184.09-23.15 182.69-26.55 180.29-28.38 177.89-30.2 174.94-30.2L174.94-30.2ZM210.74-31.1Q213.54-31.1 215.26-30.3 216.99-29.5 218.94-27.85L218.94-27.85Q219.59-27.35 219.94-27.35L219.94-27.35Q220.89-27.35 221.19-30.4L221.19-30.4 222.34-30.4Q222.14-27.55 222.14-20.4L222.14-20.4 220.99-20.4Q220.59-22.3 220.01-23.75 219.44-25.2 218.49-26.3L218.49-26.3Q216.84-28.2 215.04-29.2 213.24-30.2 210.64-30.2L210.64-30.2Q207.64-30.2 205.44-28.38 203.24-26.55 202.04-23.15 200.84-19.75 200.84-15.15L200.84-15.15Q200.84-7.5 203.64-3.9 206.44-0.3 211.99-0.3L211.99-0.3Q214.14-0.3 215.84-0.7L215.84-0.7Q216.74-0.9 217.06-1.35 217.39-1.8 217.39-2.6L217.39-2.6 217.39-6.9Q217.39-9 216.99-9.95 216.59-10.9 215.59-11.25 214.59-11.6 212.34-11.7L212.34-11.7 212.34-12.7Q215.04-12.55 219.39-12.55L219.39-12.55Q222.79-12.55 224.59-12.7L224.59-12.7 224.59-11.7Q223.44-11.6 222.94-11.3 222.44-11 222.24-10.15 222.04-9.3 222.04-7.4L222.04-7.4 222.04 0 221.04 0Q220.94-1.2 220.29-1.2L220.29-1.2Q219.99-1.2 219.19-0.85 218.39-0.5 218.09-0.4L218.09-0.4Q214.89 0.7 211.54 0.7L211.54 0.7Q204.04 0.7 199.94-3.33 195.84-7.35 195.84-14.6L195.84-14.6Q195.84-19.6 197.74-23.33 199.64-27.05 203.01-29.08 206.39-31.1 210.74-31.1L210.74-31.1Z" opacity="1" transform="matrix(1,0,0,1,0,0)" fill="#556970" class="wordmark-text-0" data-fill-palette-color="primary" id="text-0"></path></svg></g></svg></g></svg></g></svg></g><g></g></svg></g></svg></g></svg></g><path d="M0 100.308L0 1 244.431 1 244.431 100.308 241.312 100.308 241.312 4.119 3.119 4.119 3.119 100.308 0 100.308M0 146.892L0 246.2 244.431 246.2 244.431 146.892 241.312 146.892 241.312 243.081 3.119 243.081 3.119 146.892 0 146.892" fill="#556970" stroke="transparent" data-fill-palette-color="tertiary"></path></svg></g><defs></defs></svg><rect width="244.43135999999998" height="247.2" fill="none" stroke="none" visibility="hidden"></rect></g></svg></g></svg>