<svg xmlns="http://www.w3.org/2000/svg" xmlns:xlink="http://www.w3.org/1999/xlink" width="400" zoomAndPan="magnify" viewBox="0 0 300 225" height="300" preserveAspectRatio="xMidYMid meet" version="1.0"><defs><g/><clipPath id="ee22af84df"><path d="M 48 1 L 269 1 L 269 147 L 48 147 Z M 48 1 " clip-rule="nonzero"/></clipPath><clipPath id="1da4d16d77"><path d="M 38.6875 12.332031 L 256.449219 -7.75 L 268.808594 126.257812 L 51.042969 146.339844 Z M 38.6875 12.332031 " clip-rule="nonzero"/></clipPath><clipPath id="789f6be197"><path d="M 111.894531 11.921875 C 122.671875 7.101562 135.167969 3.433594 147.625 2.285156 C 160.082031 1.136719 172.265625 2.167969 183.664062 4.945312 C 183.910156 5.042969 184.144531 5.019531 184.390625 5.117188 C 227.277344 16.476562 261.53125 53.761719 266.164062 97.59375 L 268.808594 126.257812 L 51.042969 146.339844 L 48.402344 117.699219 C 44.917969 73.5 71.304688 30.621094 111.894531 11.921875 Z M 111.894531 11.921875 " clip-rule="nonzero"/></clipPath><clipPath id="4111f95ed6"><path d="M 0 98 L 178 98 L 178 183 L 0 183 Z M 0 98 " clip-rule="nonzero"/></clipPath><clipPath id="fe732b8509"><path d="M -28.167969 120.042969 L 170.605469 85.128906 L 184.027344 161.535156 L -14.75 196.449219 Z M -28.167969 120.042969 " clip-rule="nonzero"/></clipPath><clipPath id="f4ada5a6ec"><path d="M 71.082031 102.609375 C 16.265625 112.238281 -25.164062 137.144531 -21.460938 158.246094 C -17.753906 179.34375 29.6875 188.644531 84.5 179.015625 C 139.316406 169.386719 180.746094 144.480469 177.042969 123.378906 C 173.335938 102.28125 125.894531 92.980469 71.082031 102.609375 Z M 71.082031 102.609375 " clip-rule="nonzero"/></clipPath><clipPath id="ab7224ed9a"><path d="M 103 72 L 300 72 L 300 183 L 103 183 Z M 103 72 " clip-rule="nonzero"/></clipPath><clipPath id="8369c0e6b4"><path d="M 109.328125 63.058594 L 320.320312 84.207031 L 309.5625 191.589844 L 98.566406 170.445312 Z M 109.328125 63.058594 " clip-rule="nonzero"/></clipPath><clipPath id="fd4615d8ad"><path d="M 214.785156 73.628906 C 156.542969 67.792969 106.917969 87.097656 103.945312 116.753906 C 100.972656 146.40625 145.78125 175.175781 204.023438 181.015625 C 262.265625 186.851562 311.890625 167.542969 314.863281 137.890625 C 317.835938 108.238281 273.027344 79.464844 214.785156 73.628906 Z M 214.785156 73.628906 " clip-rule="nonzero"/></clipPath><clipPath id="dcda0849c0"><path d="M 4 79 L 300 79 L 300 176 L 4 176 Z M 4 79 " clip-rule="nonzero"/></clipPath><clipPath id="17f3039ffe"><path d="M 0.714844 88.183594 L 298.089844 73.246094 L 302.527344 161.636719 L 5.152344 176.570312 Z M 0.714844 88.183594 " clip-rule="nonzero"/></clipPath><clipPath id="e13eb92af6"><path d="M 0.714844 88.183594 L 298.089844 73.246094 L 302.527344 161.636719 L 5.152344 176.570312 Z M 0.714844 88.183594 " clip-rule="nonzero"/></clipPath><clipPath id="a90573d6cf"><path d="M 0.714844 88.183594 L 298.089844 73.246094 L 302.527344 161.636719 L 5.152344 176.570312 Z M 0.714844 88.183594 " clip-rule="nonzero"/></clipPath><clipPath id="e918ba396a"><path d="M 93 106 L 213 106 L 213 150 L 93 150 Z M 93 106 " clip-rule="nonzero"/></clipPath><clipPath id="2a97f47f12"><path d="M 0.714844 88.183594 L 298.089844 73.246094 L 302.527344 161.636719 L 5.152344 176.570312 Z M 0.714844 88.183594 " clip-rule="nonzero"/></clipPath><clipPath id="acaee6dfd5"><path d="M 0.714844 88.183594 L 298.089844 73.246094 L 302.527344 161.636719 L 5.152344 176.570312 Z M 0.714844 88.183594 " clip-rule="nonzero"/></clipPath><clipPath id="1dd74639f9"><path d="M 0.714844 88.183594 L 298.089844 73.246094 L 302.527344 161.636719 L 5.152344 176.570312 Z M 0.714844 88.183594 " clip-rule="nonzero"/></clipPath><clipPath id="aa81e8064d"><path d="M 223 104 L 273 104 L 273 119 L 223 119 Z M 223 104 " clip-rule="nonzero"/></clipPath><clipPath id="e06bc46a5c"><path d="M 0.714844 88.183594 L 298.089844 73.246094 L 302.527344 161.636719 L 5.152344 176.570312 Z M 0.714844 88.183594 " clip-rule="nonzero"/></clipPath><clipPath id="ecf8254b18"><path d="M 0.714844 88.183594 L 298.089844 73.246094 L 302.527344 161.636719 L 5.152344 176.570312 Z M 0.714844 88.183594 " clip-rule="nonzero"/></clipPath><clipPath id="ef21056917"><path d="M 0.714844 88.183594 L 298.089844 73.246094 L 302.527344 161.636719 L 5.152344 176.570312 Z M 0.714844 88.183594 " clip-rule="nonzero"/></clipPath><clipPath id="175b507e22"><path d="M 285 107 L 294 107 L 294 109 L 285 109 Z M 285 107 " clip-rule="nonzero"/></clipPath><clipPath id="b135279e02"><path d="M 0.714844 88.183594 L 298.089844 73.246094 L 302.527344 161.636719 L 5.152344 176.570312 Z M 0.714844 88.183594 " clip-rule="nonzero"/></clipPath><clipPath id="d2b570787a"><path d="M 0.714844 88.183594 L 298.089844 73.246094 L 302.527344 161.636719 L 5.152344 176.570312 Z M 0.714844 88.183594 " clip-rule="nonzero"/></clipPath><clipPath id="8c6494a7f0"><path d="M 0.714844 88.183594 L 298.089844 73.246094 L 302.527344 161.636719 L 5.152344 176.570312 Z M 0.714844 88.183594 " clip-rule="nonzero"/></clipPath><clipPath id="9e89268eba"><path d="M 228 148 L 229 148 L 229 149 L 228 149 Z M 228 148 " clip-rule="nonzero"/></clipPath><clipPath id="d53a672903"><path d="M 0.714844 88.183594 L 298.089844 73.246094 L 302.527344 161.636719 L 5.152344 176.570312 Z M 0.714844 88.183594 " clip-rule="nonzero"/></clipPath><clipPath id="896c5fcd99"><path d="M 0.714844 88.183594 L 298.089844 73.246094 L 302.527344 161.636719 L 5.152344 176.570312 Z M 0.714844 88.183594 " clip-rule="nonzero"/></clipPath><clipPath id="c96ec4e925"><path d="M 0.714844 88.183594 L 298.089844 73.246094 L 302.527344 161.636719 L 5.152344 176.570312 Z M 0.714844 88.183594 " clip-rule="nonzero"/></clipPath><clipPath id="3c7b5de66f"><path d="M 254 128 L 263 128 L 263 137 L 254 137 Z M 254 128 " clip-rule="nonzero"/></clipPath><clipPath id="24e5d8abf4"><path d="M 0.714844 88.183594 L 298.089844 73.246094 L 302.527344 161.636719 L 5.152344 176.570312 Z M 0.714844 88.183594 " clip-rule="nonzero"/></clipPath><clipPath id="43961099e5"><path d="M 0.714844 88.183594 L 298.089844 73.246094 L 302.527344 161.636719 L 5.152344 176.570312 Z M 0.714844 88.183594 " clip-rule="nonzero"/></clipPath><clipPath id="1dffabeaee"><path d="M 0.714844 88.183594 L 298.089844 73.246094 L 302.527344 161.636719 L 5.152344 176.570312 Z M 0.714844 88.183594 " clip-rule="nonzero"/></clipPath><clipPath id="4da3624fb2"><path d="M 244 137 L 248 137 L 248 141 L 244 141 Z M 244 137 " clip-rule="nonzero"/></clipPath><clipPath id="265f651429"><path d="M 0.714844 88.183594 L 298.089844 73.246094 L 302.527344 161.636719 L 5.152344 176.570312 Z M 0.714844 88.183594 " clip-rule="nonzero"/></clipPath><clipPath id="908b5ef8fd"><path d="M 0.714844 88.183594 L 298.089844 73.246094 L 302.527344 161.636719 L 5.152344 176.570312 Z M 0.714844 88.183594 " clip-rule="nonzero"/></clipPath><clipPath id="65b2251cc9"><path d="M 0.714844 88.183594 L 298.089844 73.246094 L 302.527344 161.636719 L 5.152344 176.570312 Z M 0.714844 88.183594 " clip-rule="nonzero"/></clipPath><clipPath id="e1bba2bb43"><path d="M 70 138 L 80 138 L 80 146 L 70 146 Z M 70 138 " clip-rule="nonzero"/></clipPath><clipPath id="458df35faa"><path d="M 0.714844 88.183594 L 298.089844 73.246094 L 302.527344 161.636719 L 5.152344 176.570312 Z M 0.714844 88.183594 " clip-rule="nonzero"/></clipPath><clipPath id="b3b923ddba"><path d="M 0.714844 88.183594 L 298.089844 73.246094 L 302.527344 161.636719 L 5.152344 176.570312 Z M 0.714844 88.183594 " clip-rule="nonzero"/></clipPath><clipPath id="6b4c8a7d77"><path d="M 0.714844 88.183594 L 298.089844 73.246094 L 302.527344 161.636719 L 5.152344 176.570312 Z M 0.714844 88.183594 " clip-rule="nonzero"/></clipPath><clipPath id="0d0497115a"><path d="M 60 146 L 64 146 L 64 150 L 60 150 Z M 60 146 " clip-rule="nonzero"/></clipPath><clipPath id="3c8b0c798d"><path d="M 0.714844 88.183594 L 298.089844 73.246094 L 302.527344 161.636719 L 5.152344 176.570312 Z M 0.714844 88.183594 " clip-rule="nonzero"/></clipPath><clipPath id="d9fa6de70d"><path d="M 0.714844 88.183594 L 298.089844 73.246094 L 302.527344 161.636719 L 5.152344 176.570312 Z M 0.714844 88.183594 " clip-rule="nonzero"/></clipPath><clipPath id="6eb38291cc"><path d="M 0.714844 88.183594 L 298.089844 73.246094 L 302.527344 161.636719 L 5.152344 176.570312 Z M 0.714844 88.183594 " clip-rule="nonzero"/></clipPath><clipPath id="ea59ca84a9"><path d="M 17 66 L 138 66 L 138 87 L 17 87 Z M 17 66 " clip-rule="nonzero"/></clipPath><clipPath id="45116c64de"><path d="M 136.316406 59.832031 L 137.832031 72.78125 L 19.214844 86.640625 L 17.699219 73.691406 Z M 136.316406 59.832031 " clip-rule="nonzero"/></clipPath><clipPath id="782be80787"><path d="M 137.074219 66.304688 L 19.253906 86.636719 L 17.742188 73.6875 Z M 137.074219 66.304688 " clip-rule="nonzero"/></clipPath><clipPath id="3a02c6b767"><path d="M 154 23 L 274 23 L 274 42 L 154 42 Z M 154 23 " clip-rule="nonzero"/></clipPath><clipPath id="620f9efc67"><path d="M 155.003906 47.640625 L 153.746094 34.664062 L 272.609375 23.121094 L 273.871094 36.097656 Z M 155.003906 47.640625 " clip-rule="nonzero"/></clipPath><clipPath id="0d804db592"><path d="M 154.375 41.152344 L 272.570312 23.125 L 273.828125 36.101562 Z M 154.375 41.152344 " clip-rule="nonzero"/></clipPath></defs><g clip-path="url(#ee22af84df)"><g clip-path="url(#1da4d16d77)"><g clip-path="url(#789f6be197)"><path fill="#1c7ce2" d="M 38.6875 12.332031 L 256.449219 -7.75 L 268.808594 126.257812 L 51.042969 146.339844 Z M 38.6875 12.332031 " fill-opacity="1" fill-rule="nonzero"/></g></g></g><g clip-path="url(#4111f95ed6)"><g clip-path="url(#fe732b8509)"><g clip-path="url(#f4ada5a6ec)"><path fill="#ffffff" d="M -28.167969 120.042969 L 170.308594 85.179688 L 183.726562 161.585938 L -14.75 196.449219 Z M -28.167969 120.042969 " fill-opacity="1" fill-rule="nonzero"/></g></g></g><g clip-path="url(#ab7224ed9a)"><g clip-path="url(#8369c0e6b4)"><g clip-path="url(#fd4615d8ad)"><path fill="#ffffff" d="M 109.328125 63.058594 L 320.320312 84.207031 L 309.5625 191.589844 L 98.566406 170.445312 Z M 109.328125 63.058594 " fill-opacity="1" fill-rule="nonzero"/></g></g></g><g clip-path="url(#dcda0849c0)"><g clip-path="url(#17f3039ffe)"><g clip-path="url(#e13eb92af6)"><g clip-path="url(#a90573d6cf)"><path fill="#000000" d="M 261.785156 158.289062 C 264.617188 156.183594 266.640625 154.050781 268.144531 151.449219 C 268.34375 151.117188 268.496094 150.933594 269.019531 150.921875 C 276.140625 150.644531 283.203125 149.683594 290.242188 148.605469 C 292.476562 148.265625 293.980469 147.046875 294.832031 144.90625 C 295.824219 142.382812 296.382812 139.773438 296.613281 137.097656 C 296.960938 133.03125 297.242188 128.957031 296.578125 124.890625 C 296.480469 124.261719 296.273438 123.640625 295.640625 123.402344 C 294.871094 123.121094 294.570312 123.847656 294.160156 124.257812 C 290.449219 127.996094 286.78125 131.769531 283.027344 135.46875 C 280.40625 138.046875 277.640625 140.46875 274.40625 142.945312 C 274.746094 140.804688 274.695312 139.046875 274.59375 137.277344 C 273.605469 119.777344 256.980469 108.566406 240.933594 111.601562 C 226.542969 114.328125 217.648438 125.492188 217.71875 140.039062 C 217.71875 141.140625 217.371094 141.453125 216.324219 141.585938 C 210.601562 142.304688 204.867188 143.050781 199.148438 143.875 C 183.601562 146.09375 167.984375 147.78125 152.367188 149.4375 C 135.796875 151.199219 119.1875 152.675781 102.578125 153.902344 C 98.558594 154.199219 94.53125 154.320312 90.535156 154.519531 C 92 146.082031 90.128906 139.949219 87.550781 135.402344 C 81.347656 124.390625 68.324219 118.617188 55.941406 121.539062 C 45.714844 123.949219 38.179688 129.679688 34.726562 139.867188 C 32.871094 145.355469 32.949219 150.957031 34.605469 156.535156 C 34.753906 157.050781 35.679688 158.054688 34.054688 158.136719 C 28.777344 158.386719 23.511719 158.570312 18.257812 157.894531 C 15.964844 157.59375 14.757812 157.195312 13.65625 156.484375 C 16.3125 155.421875 16.738281 154.449219 15.550781 151.75 C 15.109375 150.738281 14.546875 149.757812 13.984375 148.789062 C 12.714844 146.621094 11.328125 144.511719 10.152344 142.300781 C 8.332031 138.855469 8.753906 137.273438 12.15625 135.449219 C 15.703125 133.550781 19.414062 131.964844 23.003906 130.15625 C 27.148438 128.066406 31.347656 126.015625 34.570312 122.542969 C 36.324219 120.65625 38.460938 119.390625 40.828125 118.464844 C 50.949219 114.527344 61.539062 112.664062 72.304688 111.9375 C 88.703125 110.816406 105.136719 110.070312 121.558594 109.167969 C 121.871094 109.152344 122.238281 108.972656 122.398438 109.433594 C 125.910156 108.503906 129.53125 108.875 133.203125 108.421875 C 133.082031 109.71875 131.96875 110.445312 131.746094 111.585938 C 134.53125 111.445312 137.25 111.335938 139.964844 111.171875 C 140.921875 111.125 140.519531 110.433594 140.441406 109.925781 C 140.097656 107.871094 140.09375 107.859375 142.195312 107.742188 C 153.667969 107.109375 165.136719 106.359375 176.570312 105.234375 C 183.765625 104.523438 190.914062 103.492188 198.023438 102.125 C 198.648438 102 199.199219 101.894531 199.644531 102.449219 C 199.554688 101.472656 200.414062 101.628906 200.917969 101.484375 C 202.578125 100.984375 204.285156 100.628906 205.933594 100.089844 C 208.800781 99.152344 211.675781 98.1875 214.3125 96.683594 C 216.460938 95.445312 216.773438 94.355469 215.753906 92.09375 C 214.25 88.738281 211.683594 87 207.976562 86.566406 C 199.226562 85.539062 190.472656 84.757812 181.671875 84.632812 C 175.679688 84.558594 169.667969 84.605469 163.722656 85.75 C 157.351562 86.984375 151.839844 90.058594 146.757812 93.851562 C 144.050781 95.867188 141.082031 96.863281 137.601562 97.726562 C 142.765625 93.914062 147.511719 90.085938 152.746094 86.90625 C 157.824219 83.828125 163.371094 82.21875 169.1875 81.46875 C 180.402344 80.03125 191.585938 80.882812 202.730469 82.246094 C 218.445312 84.171875 233.933594 87.441406 249.386719 90.859375 C 250.804688 91.179688 252.214844 91.539062 253.621094 91.886719 C 255 92.21875 256.390625 92.554688 257.769531 92.886719 C 239.425781 93.378906 221.339844 94.757812 204.074219 102.265625 C 204.738281 102.621094 205.078125 102.429688 205.453125 102.332031 C 217.285156 98.941406 229.378906 96.976562 241.644531 95.941406 C 250.722656 95.175781 259.800781 95.449219 268.886719 95.863281 C 277.121094 96.246094 285.355469 96.421875 293.597656 96.679688 C 296.421875 96.769531 296.417969 96.742188 296.246094 93.859375 C 296.226562 93.417969 296.203125 92.960938 296.179688 92.519531 C 296.007812 89.878906 295.347656 89.398438 292.800781 90.199219 C 292.175781 90.394531 291.601562 90.796875 291.054688 91.175781 C 289.804688 92.070312 288.460938 92.703125 286.96875 93.046875 C 280.605469 94.523438 274.226562 94.210938 267.960938 92.777344 C 253.089844 89.382812 238.261719 85.785156 223.1875 83.261719 C 206.851562 80.53125 190.460938 78.613281 173.839844 79.902344 C 165.457031 80.554688 157.335938 82.375 149.765625 86.128906 C 136.871094 92.519531 124.296875 99.496094 111.699219 106.449219 C 110.542969 107.085938 109.375 107.4375 108.058594 107.53125 C 94.222656 108.457031 80.378906 109.097656 66.613281 110.824219 C 57.363281 111.988281 48.269531 113.789062 39.519531 117.105469 C 26.867188 121.910156 15.847656 129.453125 5.066406 137.433594 C 4.335938 137.964844 4.265625 138.398438 4.777344 139.179688 C 5.636719 140.484375 6.382812 141.871094 7.058594 143.277344 C 8.324219 145.886719 9.546875 148.527344 10.003906 151.4375 C 10.203125 152.730469 10.039062 153.992188 8.761719 154.644531 C 7.554688 155.273438 7.957031 155.800781 8.601562 156.511719 C 10.339844 158.398438 12.460938 159.773438 14.820312 161.117188 C 11.40625 163.011719 8.167969 164.800781 4.78125 166.679688 C 5.492188 167.128906 5.996094 166.941406 6.464844 166.929688 C 17.058594 166.464844 27.664062 166 38.253906 165.523438 C 41.082031 165.394531 41.078125 165.378906 41.253906 162.695312 C 41.253906 162.640625 41.410156 162.59375 41.554688 162.503906 C 43.417969 164.96875 45.503906 167.242188 48.496094 169.09375 C 34.730469 170.527344 21.441406 172.082031 8.199219 174.078125 C 12.949219 174.605469 17.609375 175.808594 22.382812 175.570312 C 76.308594 172.863281 130.234375 170.152344 184.160156 167.445312 C 222.449219 165.523438 260.726562 163.558594 299.015625 161.609375 C 300.023438 161.558594 301.082031 161.640625 302.398438 160.996094 C 288.828125 159.367188 275.632812 157.996094 261.867188 158.351562 Z M 139.398438 97.753906 C 140.664062 97.167969 142.023438 96.84375 143.25 96.808594 C 146.394531 96.597656 148.082031 97.925781 148.320312 100.5625 C 148.382812 101.285156 148.222656 101.601562 147.5 101.652344 C 143.53125 101.90625 139.628906 102.570312 135.703125 103.160156 C 134.726562 103.300781 134.835938 102.8125 135.074219 102.183594 C 135.859375 100.070312 137.4375 98.6875 139.398438 97.753906 Z M 136.007812 99.015625 C 135.085938 100.515625 134.144531 101.90625 134.222656 103.703125 C 134.242188 104.121094 134.070312 104.464844 133.746094 104.722656 C 131.429688 106.652344 129.175781 108.757812 125.695312 107.464844 C 129.105469 104.671875 132.5625 101.851562 136.007812 99.015625 Z M 236.789062 120.941406 C 243.292969 117.777344 249.707031 117.925781 255.996094 121.507812 C 257.59375 122.425781 259.15625 123.40625 260.285156 124.9375 C 259.453125 125.058594 259.160156 124.296875 258.667969 123.902344 C 251.410156 118.257812 243.742188 117.621094 235.640625 121.980469 C 235.65625 121.238281 236.328125 121.164062 236.789062 120.941406 Z M 256.460938 147.085938 C 255.183594 146.398438 253.917969 145.667969 252.441406 145.5 C 251.53125 145.398438 250.917969 145.523438 251.304688 146.769531 C 251.902344 148.742188 252.777344 150.605469 253.5625 152.503906 C 252.789062 152.394531 252.722656 151.660156 252.46875 151.160156 C 251.152344 148.566406 249.574219 146.15625 247.71875 143.855469 C 248.125 143.605469 248.53125 143.410156 248.882812 143.136719 C 250.761719 141.632812 250.777344 141.617188 252.625 143.261719 C 254.84375 145.234375 257.410156 146.71875 259.78125 148.480469 C 258.472656 148.492188 257.511719 147.640625 256.457031 147.074219 Z M 240.675781 146.199219 C 240.113281 145.742188 239.09375 146.441406 238.359375 146.839844 C 236.46875 147.890625 234.625 149.03125 233.054688 150.550781 C 232.222656 150.105469 232.964844 149.8125 233.210938 149.625 C 235.828125 147.453125 238.355469 145.1875 240.617188 142.640625 C 241.253906 141.90625 241.863281 141.714844 242.441406 142.722656 C 242.546875 142.90625 242.707031 143.140625 242.882812 143.210938 C 245.175781 143.996094 244.089844 145.195312 243.269531 146.3125 C 241.679688 148.488281 240.878906 151.058594 239.578125 153.382812 C 239.578125 151.769531 240.523438 150.429688 240.824219 148.894531 C 241.003906 147.957031 241.378906 146.796875 240.660156 146.226562 Z M 229.554688 138.839844 C 231.53125 138.46875 233.574219 138.328125 235.4375 137.507812 C 236.847656 136.886719 236.945312 136.394531 235.800781 135.378906 C 234.007812 133.773438 232.199219 132.183594 229.941406 130.683594 C 230.929688 130.5 231.328125 130.9375 231.746094 131.210938 C 234.382812 132.921875 237.042969 134.5625 240.042969 135.542969 C 241.222656 135.925781 241.265625 136.730469 241.027344 137.65625 C 240.816406 138.527344 240.585938 139.320312 239.269531 139.183594 C 235.921875 138.839844 232.539062 138.929688 229.195312 139.234375 C 228.109375 139.328125 227.882812 138.855469 228.09375 137.984375 C 228.519531 136.199219 229.007812 134.441406 229.636719 132.714844 C 229.726562 134.472656 229.023438 136.066406 228.621094 137.714844 C 228.363281 138.761719 228.5 139.039062 229.554688 138.839844 Z M 241.367188 121.878906 C 241.363281 121.785156 241.34375 121.695312 241.328125 121.585938 L 247.945312 121.253906 C 247.949219 121.347656 247.957031 121.441406 247.960938 121.550781 L 241.355469 121.882812 Z M 248.328125 122.941406 C 248.054688 126.101562 247.46875 129.210938 247.34375 132.378906 C 247.296875 133.550781 246.253906 133.523438 245.464844 133.601562 C 244.710938 133.679688 243.773438 133.753906 243.597656 132.675781 C 243.15625 129.832031 242.464844 127.042969 241.730469 124.230469 C 242.554688 125.667969 243.371094 127.105469 244.210938 128.527344 C 244.492188 129.011719 244.832031 129.601562 245.410156 129.585938 C 246.085938 129.578125 246.152344 128.820312 246.347656 128.339844 C 247.039062 126.558594 247.664062 124.738281 248.3125 122.929688 Z M 243.605469 138.75 C 243.648438 137.457031 244.445312 136.71875 245.695312 136.574219 C 246.875 136.4375 247.925781 137.472656 248 138.972656 C 247.917969 140.027344 247.238281 140.746094 245.921875 140.828125 C 244.65625 140.902344 243.570312 139.964844 243.605469 138.75 Z M 253.914062 138.003906 C 253.527344 138.089844 253.121094 138.085938 252.765625 138.238281 C 251.5625 138.726562 250.832031 138.429688 250.257812 137.207031 C 249.667969 135.960938 249.996094 135.191406 251.15625 134.675781 C 254.097656 133.371094 256.472656 131.234375 259.023438 129.359375 C 259.347656 129.113281 259.632812 128.371094 260.253906 128.917969 C 260.253906 128.945312 260.257812 128.972656 260.273438 129 C 260.273438 129 260.285156 129 260.296875 128.984375 C 261.785156 131.183594 262.492188 133.703125 263.304688 136.175781 C 263.605469 137.113281 262.851562 137.113281 262.234375 137.171875 C 259.453125 137.445312 256.648438 137.398438 253.898438 138.003906 Z M 50.953125 132.046875 C 54.933594 128.582031 64.539062 127.601562 69.363281 130.15625 C 67.9375 130.214844 66.660156 129.539062 65.277344 129.351562 C 60.003906 128.59375 55.128906 129.539062 50.738281 132.625 C 50.808594 132.433594 50.824219 132.175781 50.964844 132.0625 Z M 69.292969 154.792969 C 68.09375 154.570312 67.46875 154.738281 67.988281 156.230469 C 68.617188 158.015625 69.457031 159.679688 70.242188 161.386719 C 69.710938 161.496094 69.578125 161.03125 69.414062 160.730469 C 67.917969 158.050781 66.171875 155.542969 63.992188 153.175781 C 64.714844 152.789062 65.476562 152.683594 65.847656 152.035156 C 66.554688 150.789062 67.273438 150.902344 68.304688 151.761719 C 70.683594 153.78125 73.28125 155.519531 75.953125 157.148438 C 76.242188 157.320312 76.757812 157.375 76.613281 157.933594 C 76.613281 157.976562 76.519531 158.007812 76.46875 158.007812 C 76.414062 158.011719 76.359375 158.015625 76.304688 158.019531 C 74.09375 156.675781 71.894531 155.292969 69.292969 154.804688 Z M 55.867188 155.804688 C 53.632812 156.925781 51.539062 158.28125 49.769531 160.0625 C 48.921875 159.863281 49.554688 159.523438 49.734375 159.351562 C 52.257812 156.992188 54.855469 154.726562 56.96875 151.96875 C 57.488281 151.296875 58.050781 151.429688 58.695312 151.921875 C 60.839844 153.589844 60.898438 153.613281 59.375 156.058594 C 58.101562 158.085938 57.53125 160.441406 56.269531 162.464844 C 56.707031 160.683594 57.226562 158.921875 57.554688 157.128906 C 57.851562 155.527344 57.289062 155.085938 55.867188 155.804688 Z M 55.367188 163.855469 C 53.753906 163.117188 52.378906 162.042969 50.976562 160.996094 C 52.777344 161.445312 54.167969 162.519531 55.367188 163.855469 Z M 46.140625 141.554688 C 46.085938 143.65625 45.523438 145.632812 44.730469 147.570312 L 44.765625 147.488281 C 44.789062 147.902344 44.585938 148.4375 45.363281 148.355469 C 47.644531 148.109375 49.90625 147.753906 52.03125 146.839844 C 52.890625 146.472656 53.160156 145.921875 52.367188 145.207031 C 50.515625 143.527344 48.679688 141.84375 46.449219 140.652344 C 46.675781 139.832031 47.121094 140.335938 47.453125 140.519531 C 50.453125 142.226562 53.351562 144.125 56.742188 145.042969 C 57.796875 145.324219 57.535156 146.28125 57.4375 147.011719 C 57.316406 147.851562 57.058594 148.65625 55.898438 148.609375 C 52.367188 148.449219 48.847656 148.453125 45.332031 148.761719 C 44.1875 148.859375 44.414062 148.203125 44.730469 147.570312 C 44.800781 145.46875 45.347656 143.476562 46.140625 141.554688 Z M 56.71875 131.652344 C 59.371094 130.992188 61.628906 130.878906 63.972656 130.828125 C 62.890625 131.515625 60.085938 131.84375 56.71875 131.652344 Z M 64.351562 132.667969 C 64 135.65625 63.386719 138.484375 63.480469 141.398438 C 63.519531 142.726562 62.59375 143.121094 61.550781 143.269531 C 60.492188 143.414062 59.675781 143.027344 59.507812 141.824219 C 59.09375 138.953125 58.160156 136.21875 57.386719 133.394531 C 58.332031 135.027344 59.265625 136.671875 60.261719 138.277344 C 60.527344 138.707031 60.761719 139.410156 61.457031 139.28125 C 62.019531 139.183594 62.097656 138.546875 62.277344 138.109375 C 62.996094 136.3125 63.660156 134.488281 64.351562 132.667969 Z M 59.960938 148.160156 C 59.945312 146.777344 60.804688 146.15625 62.054688 146.027344 C 63.273438 145.898438 64.378906 146.933594 64.40625 148.300781 C 64.316406 149.449219 63.515625 150.160156 62.269531 150.304688 C 61.046875 150.445312 59.96875 149.398438 59.949219 148.175781 Z M 68.175781 147.898438 C 67.105469 147.75 66.765625 146.894531 66.386719 146.105469 C 66.054688 145.394531 66.210938 144.78125 66.949219 144.421875 C 70.148438 142.875 72.828125 140.578125 75.5625 138.394531 C 75.9375 138.09375 76.324219 137.671875 76.675781 138.515625 C 77.609375 140.714844 78.632812 142.882812 79.582031 145.078125 C 79.765625 145.511719 79.9375 146.003906 79.09375 146.152344 C 75.472656 146.804688 71.699219 146.617188 68.164062 147.898438 Z M 69.558594 166.53125 C 57.058594 172.015625 41.703125 161.933594 42.105469 147.902344 C 42.148438 146.125 42.316406 144.355469 43.164062 142.726562 C 43.332031 144.144531 42.710938 145.453125 42.617188 146.839844 C 42.113281 155.109375 45.824219 161.039062 52.851562 165.003906 C 59.914062 168.992188 66.867188 168.292969 73.363281 163.652344 C 82.195312 157.359375 84.25 146.96875 78.613281 137.933594 C 77.292969 135.808594 75.34375 134.292969 73.546875 132.636719 C 76.050781 133.636719 77.636719 135.671875 79.027344 137.804688 C 85.796875 148.234375 81.226562 161.429688 69.558594 166.546875 Z M 78.6875 167.285156 C 81.425781 165.195312 83.21875 162.738281 84.839844 160.117188 C 85.027344 160.324219 85.136719 160.382812 85.15625 160.464844 C 85.300781 161.945312 86.140625 162.648438 87.675781 162.570312 C 132.304688 160.328125 176.917969 158.074219 221.546875 155.820312 C 223.328125 155.730469 224.3125 154.78125 224.492188 152.96875 C 226.601562 155.527344 228.804688 157.753906 231.785156 159.609375 L 78.6875 167.296875 Z M 229.394531 150.128906 C 229.015625 149.609375 228.492188 149.109375 228.550781 148.367188 C 226.832031 146.410156 226.371094 143.960938 226.0625 141.527344 C 225.488281 137.105469 226.191406 132.875 228.628906 129.042969 C 228.023438 131.222656 226.882812 133.21875 226.566406 135.503906 C 225.996094 139.675781 226.398438 143.691406 228.304688 147.507812 C 228.4375 147.796875 228.496094 148.117188 228.59375 148.433594 C 230.0625 150.054688 231.273438 151.875 232.953125 153.324219 C 239.097656 158.609375 247.285156 159.703125 254.554688 156.152344 C 261.386719 152.808594 265.828125 145.351562 265.398438 137.886719 C 265.226562 135.03125 264.496094 132.28125 263.207031 129.699219 C 262.9375 129.175781 262.441406 128.703125 262.597656 128.023438 C 266.667969 134.445312 267.15625 141.171875 263.605469 147.859375 C 256.285156 161.632812 238.433594 162.527344 229.394531 150.15625 Z M 229.394531 150.128906 " fill-opacity="1" fill-rule="nonzero"/></g></g></g></g><g clip-path="url(#e918ba396a)"><g clip-path="url(#2a97f47f12)"><g clip-path="url(#acaee6dfd5)"><g clip-path="url(#1dd74639f9)"><path fill="#000000" d="M 115.839844 118.261719 C 114.953125 121.84375 112.371094 122.550781 109.261719 123.148438 C 104.933594 123.984375 100.566406 124.863281 96.503906 126.695312 C 93.5625 128.027344 93 129.492188 94.492188 132.28125 C 97.367188 137.703125 100.96875 142.59375 105.507812 146.761719 C 107.6875 148.765625 110.304688 149.871094 113.296875 149.8125 C 124.804688 149.570312 136.242188 148.269531 147.695312 147.226562 C 158.25 146.265625 168.773438 144.96875 179.300781 143.753906 C 185.644531 143.019531 191.984375 142.230469 198.070312 140.164062 C 202.144531 138.777344 205.917969 136.878906 207.800781 132.765625 C 210.777344 126.214844 212.0625 119.265625 212.023438 112.085938 C 212.003906 109.800781 210.757812 108.359375 208.554688 107.6875 C 206.855469 107.183594 205.101562 107.175781 203.390625 107.476562 C 202.46875 107.644531 201.941406 107.375 201.5 106.671875 C 201.574219 107.273438 201.550781 107.664062 200.71875 107.773438 C 194.820312 108.472656 188.917969 109.144531 183.042969 110.003906 C 173.84375 111.355469 164.648438 112.757812 155.46875 114.28125 C 147.230469 115.648438 139.023438 117.164062 130.820312 118.679688 C 126.085938 119.546875 121.378906 120.566406 116.648438 121.5 C 116.449219 121.539062 116.234375 121.523438 115.910156 121.539062 C 116.746094 119.089844 117.542969 116.738281 118.34375 114.371094 C 117.210938 115.476562 116.199219 116.84375 115.839844 118.273438 Z M 116.683594 126.191406 C 116.707031 125.035156 116.949219 124.5 118.269531 124.203125 C 134.199219 120.742188 150.242188 117.878906 166.359375 115.429688 C 177 113.816406 187.664062 112.339844 198.332031 110.957031 C 203.15625 110.328125 203.113281 110.300781 202.691406 115.339844 C 202.207031 121.226562 200.664062 126.816406 198.554688 132.328125 C 196.085938 138.757812 191.414062 141.628906 184.714844 142.515625 C 168.207031 144.6875 151.671875 146.609375 135.078125 147.886719 C 135.085938 148.035156 135.09375 148.179688 135.101562 148.328125 C 129.328125 148.617188 123.570312 148.878906 117.800781 149.222656 C 116.640625 149.28125 116.210938 149.046875 116.246094 147.824219 C 116.4375 140.621094 116.574219 133.40625 116.683594 126.207031 Z M 116.15625 126.179688 C 116.0625 133.996094 115.957031 141.035156 115.90625 148.070312 C 115.90625 149.105469 115.488281 149.394531 114.519531 149.429688 C 111.800781 149.566406 111.566406 149.441406 110.535156 146.953125 C 108.433594 141.855469 107.0625 136.597656 106.769531 131.074219 C 106.605469 127.789062 106.957031 127.234375 110.078125 126.242188 C 111.351562 125.84375 112.65625 125.492188 113.949219 125.1875 C 116.136719 124.6875 116.136719 124.699219 116.140625 126.167969 Z M 116.15625 126.179688 " fill-opacity="1" fill-rule="nonzero"/></g></g></g></g><g clip-path="url(#aa81e8064d)"><g clip-path="url(#e06bc46a5c)"><g clip-path="url(#ecf8254b18)"><g clip-path="url(#ef21056917)"><path fill="#000000" d="M 250.195312 104.308594 C 240.578125 103.726562 232.21875 107.292969 224.667969 112.996094 C 224.484375 113.128906 224.304688 113.269531 224.164062 113.425781 C 224.0625 113.550781 223.757812 113.636719 223.957031 113.894531 C 241.210938 104.515625 257.6875 103.59375 272.882812 118.253906 C 272.78125 117.332031 272.359375 116.667969 271.933594 116.015625 C 266.847656 108.148438 259.167969 104.835938 250.195312 104.292969 Z M 250.195312 104.308594 " fill-opacity="1" fill-rule="nonzero"/></g></g></g></g><g clip-path="url(#175b507e22)"><g clip-path="url(#b135279e02)"><g clip-path="url(#d2b570787a)"><g clip-path="url(#8c6494a7f0)"><path fill="#000000" d="M 293.699219 107.59375 C 290.867188 107.574219 288.03125 107.488281 285.375 108.632812 C 288.214844 108.796875 291.007812 108.496094 293.699219 107.59375 Z M 293.699219 107.59375 " fill-opacity="1" fill-rule="nonzero"/></g></g></g></g><g clip-path="url(#9e89268eba)"><g clip-path="url(#d53a672903)"><g clip-path="url(#896c5fcd99)"><g clip-path="url(#c96ec4e925)"><path fill="#000000" d="M 228.578125 148.378906 C 228.578125 148.378906 228.546875 148.339844 228.535156 148.328125 C 228.546875 148.355469 228.5625 148.367188 228.578125 148.394531 Z M 228.578125 148.378906 " fill-opacity="1" fill-rule="nonzero"/></g></g></g></g><g clip-path="url(#3c7b5de66f)"><g clip-path="url(#24e5d8abf4)"><g clip-path="url(#43961099e5)"><g clip-path="url(#1dffabeaee)"><path fill="#000000" d="M 255.113281 134.289062 C 254.261719 135.324219 254.679688 135.828125 255.75 136.152344 C 257.761719 136.761719 259.820312 136.644531 261.886719 136.742188 C 263.050781 136.792969 263.066406 136.578125 262.667969 135.601562 C 261.761719 133.441406 260.6875 131.332031 260.285156 128.984375 C 258.296875 130.496094 256.691406 132.378906 255.117188 134.300781 Z M 255.113281 134.289062 " fill-opacity="1" fill-rule="nonzero"/></g></g></g></g><g clip-path="url(#4da3624fb2)"><g clip-path="url(#265f651429)"><g clip-path="url(#908b5ef8fd)"><g clip-path="url(#65b2251cc9)"><path fill="#000000" d="M 245.792969 140.160156 C 246.84375 140.109375 247.199219 139.445312 247.304688 138.539062 C 247.109375 137.660156 246.714844 136.996094 245.746094 137.109375 C 244.769531 137.226562 244.28125 137.964844 244.339844 138.875 C 244.390625 139.652344 244.917969 140.191406 245.804688 140.160156 Z M 245.792969 140.160156 " fill-opacity="1" fill-rule="nonzero"/></g></g></g></g><g clip-path="url(#e1bba2bb43)"><g clip-path="url(#458df35faa)"><g clip-path="url(#b3b923ddba)"><g clip-path="url(#6b4c8a7d77)"><path fill="#000000" d="M 76.09375 138.515625 C 74.34375 140.207031 72.699219 141.78125 71.347656 143.636719 C 70.90625 144.25 70.535156 144.902344 71.738281 145.230469 C 74.214844 145.914062 76.695312 146.191406 79.289062 145.738281 C 78.210938 143.292969 77.175781 140.976562 76.097656 138.53125 Z M 76.09375 138.515625 " fill-opacity="1" fill-rule="nonzero"/></g></g></g></g><g clip-path="url(#0d0497115a)"><g clip-path="url(#3c8b0c798d)"><g clip-path="url(#d9fa6de70d)"><g clip-path="url(#6eb38291cc)"><path fill="#000000" d="M 62.203125 149.582031 C 63.15625 149.480469 63.707031 148.863281 63.617188 147.871094 C 63.546875 147 62.988281 146.625 62.097656 146.644531 C 61.171875 146.769531 60.578125 147.257812 60.628906 148.277344 C 60.675781 149.242188 61.304688 149.679688 62.191406 149.582031 Z M 62.203125 149.582031 " fill-opacity="1" fill-rule="nonzero"/></g></g></g></g><g clip-path="url(#ea59ca84a9)"><g clip-path="url(#45116c64de)"><g clip-path="url(#782be80787)"><path fill="#ffffff" d="M 136.316406 59.832031 L 137.832031 72.78125 L 19.261719 86.636719 L 17.75 73.6875 Z M 136.316406 59.832031 " fill-opacity="1" fill-rule="nonzero"/></g></g></g><g clip-path="url(#3a02c6b767)"><g clip-path="url(#620f9efc67)"><g clip-path="url(#0d804db592)"><path fill="#ffffff" d="M 155.003906 47.640625 L 153.746094 34.664062 L 272.558594 23.125 L 273.820312 36.101562 Z M 155.003906 47.640625 " fill-opacity="1" fill-rule="nonzero"/></g></g></g><g fill="#000000" fill-opacity="1"><g transform="translate(56.022631, 213.013179)"><g><path d="M -1.5625 0.09375 L 12.171875 -26.1875 L 17.875 -26.5 L 24.3125 -1.359375 L 18.53125 -1.03125 L 17.484375 -5.40625 L 7.34375 -4.828125 L 4.96875 -0.28125 Z M 9.453125 -9.5 L 16.578125 -9.890625 L 14.3125 -19.09375 Z M 9.453125 -9.5 "/></g></g></g><g fill="#000000" fill-opacity="1"><g transform="translate(83.23103, 211.488011)"><g><path d="M 12.03125 -0.15625 C 9.75 -0.03125 7.835938 -0.382812 6.296875 -1.21875 C 4.753906 -2.0625 3.644531 -3.304688 2.96875 -4.953125 C 2.289062 -6.597656 2.125 -8.578125 2.46875 -10.890625 L 4.5625 -25.75 L 10.46875 -26.09375 L 8.328125 -11.296875 C 7.796875 -7.367188 9.082031 -5.492188 12.1875 -5.671875 C 15.445312 -5.847656 17.359375 -7.945312 17.921875 -11.96875 L 20.015625 -26.625 L 25.890625 -26.953125 L 23.734375 -11.609375 C 23.253906 -8.128906 22.007812 -5.394531 20 -3.40625 C 18 -1.425781 15.34375 -0.34375 12.03125 -0.15625 Z M 12.03125 -0.15625 "/></g></g></g><g fill="#000000" fill-opacity="1"><g transform="translate(110.875355, 209.938407)"><g><path d="M 7.1875 -0.40625 L 10.0625 -20.640625 L 2.078125 -20.1875 L 2.875 -25.65625 L 24.734375 -26.890625 L 23.9375 -21.421875 L 15.953125 -20.96875 L 13.078125 -0.734375 Z M 7.1875 -0.40625 "/></g></g></g><g fill="#000000" fill-opacity="1"><g transform="translate(135.649896, 208.549669)"><g><path d="M 13.65625 -0.25 C 10.914062 -0.09375 8.566406 -0.550781 6.609375 -1.625 C 4.660156 -2.695312 3.234375 -4.238281 2.328125 -6.25 C 1.421875 -8.257812 1.148438 -10.601562 1.515625 -13.28125 C 1.878906 -15.820312 2.753906 -18.097656 4.140625 -20.109375 C 5.523438 -22.128906 7.28125 -23.734375 9.40625 -24.921875 C 11.539062 -26.117188 13.890625 -26.789062 16.453125 -26.9375 C 19.191406 -27.09375 21.539062 -26.632812 23.5 -25.5625 C 25.457031 -24.5 26.890625 -22.960938 27.796875 -20.953125 C 28.710938 -18.953125 28.976562 -16.609375 28.59375 -13.921875 C 28.226562 -11.367188 27.351562 -9.085938 25.96875 -7.078125 C 24.59375 -5.078125 22.84375 -3.472656 20.71875 -2.265625 C 18.601562 -1.066406 16.25 -0.394531 13.65625 -0.25 Z M 7.390625 -13.0625 C 7.179688 -11.539062 7.304688 -10.21875 7.765625 -9.09375 C 8.234375 -7.96875 8.988281 -7.109375 10.03125 -6.515625 C 11.082031 -5.929688 12.347656 -5.679688 13.828125 -5.765625 C 15.335938 -5.847656 16.722656 -6.257812 17.984375 -7 C 19.253906 -7.738281 20.300781 -8.722656 21.125 -9.953125 C 21.957031 -11.191406 22.488281 -12.585938 22.71875 -14.140625 C 22.945312 -15.679688 22.820312 -17.007812 22.34375 -18.125 C 21.875 -19.238281 21.117188 -20.085938 20.078125 -20.671875 C 19.035156 -21.265625 17.773438 -21.519531 16.296875 -21.4375 C 14.796875 -21.34375 13.410156 -20.925781 12.140625 -20.1875 C 10.867188 -19.445312 9.816406 -18.460938 8.984375 -17.234375 C 8.148438 -16.015625 7.617188 -14.625 7.390625 -13.0625 Z M 7.390625 -13.0625 "/></g></g></g><g fill="#000000" fill-opacity="1"><g transform="translate(166.599903, 206.814765)"><g><path d="M 1.171875 -0.0625 L 4.828125 -25.765625 L 10.71875 -26.109375 L 7.796875 -5.859375 L 18.84375 -6.484375 L 18.0625 -1.015625 Z M 1.171875 -0.0625 "/></g></g></g><g fill="#000000" fill-opacity="1"><g transform="translate(188.25037, 205.601147)"><g><path d="M 13.65625 -0.25 C 10.914062 -0.09375 8.566406 -0.550781 6.609375 -1.625 C 4.660156 -2.695312 3.234375 -4.238281 2.328125 -6.25 C 1.421875 -8.257812 1.148438 -10.601562 1.515625 -13.28125 C 1.878906 -15.820312 2.753906 -18.097656 4.140625 -20.109375 C 5.523438 -22.128906 7.28125 -23.734375 9.40625 -24.921875 C 11.539062 -26.117188 13.890625 -26.789062 16.453125 -26.9375 C 19.191406 -27.09375 21.539062 -26.632812 23.5 -25.5625 C 25.457031 -24.5 26.890625 -22.960938 27.796875 -20.953125 C 28.710938 -18.953125 28.976562 -16.609375 28.59375 -13.921875 C 28.226562 -11.367188 27.351562 -9.085938 25.96875 -7.078125 C 24.59375 -5.078125 22.84375 -3.472656 20.71875 -2.265625 C 18.601562 -1.066406 16.25 -0.394531 13.65625 -0.25 Z M 7.390625 -13.0625 C 7.179688 -11.539062 7.304688 -10.21875 7.765625 -9.09375 C 8.234375 -7.96875 8.988281 -7.109375 10.03125 -6.515625 C 11.082031 -5.929688 12.347656 -5.679688 13.828125 -5.765625 C 15.335938 -5.847656 16.722656 -6.257812 17.984375 -7 C 19.253906 -7.738281 20.300781 -8.722656 21.125 -9.953125 C 21.957031 -11.191406 22.488281 -12.585938 22.71875 -14.140625 C 22.945312 -15.679688 22.820312 -17.007812 22.34375 -18.125 C 21.875 -19.238281 21.117188 -20.085938 20.078125 -20.671875 C 19.035156 -21.265625 17.773438 -21.519531 16.296875 -21.4375 C 14.796875 -21.34375 13.410156 -20.925781 12.140625 -20.1875 C 10.867188 -19.445312 9.816406 -18.460938 8.984375 -17.234375 C 8.148438 -16.015625 7.617188 -14.625 7.390625 -13.0625 Z M 7.390625 -13.0625 "/></g></g></g><g fill="#000000" fill-opacity="1"><g transform="translate(219.20037, 203.866244)"><g><path d="M 13.484375 -0.234375 C 10.765625 -0.0859375 8.445312 -0.546875 6.53125 -1.609375 C 4.613281 -2.671875 3.207031 -4.207031 2.3125 -6.21875 C 1.414062 -8.226562 1.148438 -10.570312 1.515625 -13.25 C 1.910156 -15.863281 2.769531 -18.164062 4.09375 -20.15625 C 5.425781 -22.15625 7.128906 -23.742188 9.203125 -24.921875 C 11.285156 -26.109375 13.609375 -26.773438 16.171875 -26.921875 C 18.328125 -27.046875 20.253906 -26.78125 21.953125 -26.125 C 23.648438 -25.476562 25.03125 -24.519531 26.09375 -23.25 C 27.164062 -21.976562 27.828125 -20.460938 28.078125 -18.703125 L 21.9375 -18.359375 C 21.488281 -19.472656 20.753906 -20.3125 19.734375 -20.875 C 18.710938 -21.4375 17.5 -21.679688 16.09375 -21.609375 C 14.59375 -21.523438 13.210938 -21.101562 11.953125 -20.34375 C 10.703125 -19.59375 9.660156 -18.585938 8.828125 -17.328125 C 7.992188 -16.066406 7.46875 -14.644531 7.25 -13.0625 C 7.019531 -11.488281 7.140625 -10.125 7.609375 -8.96875 C 8.078125 -7.8125 8.832031 -6.9375 9.875 -6.34375 C 10.914062 -5.75 12.175781 -5.492188 13.65625 -5.578125 C 15.46875 -5.679688 17.070312 -6.242188 18.46875 -7.265625 C 19.875 -8.285156 20.859375 -9.59375 21.421875 -11.1875 L 13.28125 -10.734375 L 13.953125 -15.265625 L 28.25 -16.0625 C 28.082031 -13.050781 27.351562 -10.382812 26.0625 -8.0625 C 24.769531 -5.75 23.046875 -3.90625 20.890625 -2.53125 C 18.734375 -1.15625 16.265625 -0.390625 13.484375 -0.234375 Z M 13.484375 -0.234375 "/></g></g></g></svg>